<svg xmlns="http://www.w3.org/2000/svg" width="171.34" height="35" viewBox="0 0 171.34 35"><rect class="svg__rect" x="0" y="0" width="75.68" height="35" fill="#189A87"/><rect class="svg__rect" x="73.68" y="0" width="97.66" height="35" fill="#000000"/><path class="svg__text" d="M13.86 17.73L13.86 17.73Q13.86 16.54 14.41 15.53Q14.96 14.52 15.93 13.93Q16.89 13.35 18.02 13.35Q19.14 13.35 20.11 13.93Q21.08 14.52 21.63 15.53Q22.17 16.54 22.17 17.73Q22.17 18.91 21.63 19.93Q21.08 20.94 20.12 21.53Q19.16 22.12 18.02 22.12L18.02 22.12Q16.89 22.12 15.93 21.53Q14.96 20.95 14.41 19.93Q13.86 18.92 13.86 17.73ZM15.03 15.89Q14.57 16.73 14.57 17.73Q14.57 18.72 15.03 19.57Q15.48 20.41 16.28 20.90Q17.08 21.39 18.02 21.39Q18.96 21.39 19.76 20.89Q20.57 20.39 21.01 19.55Q21.46 18.71 21.46 17.73L21.46 17.73Q21.46 16.76 21.02 15.92Q20.58 15.09 19.78 14.58Q18.98 14.08 18.02 14.08L18.02 14.08Q17.09 14.08 16.29 14.56Q15.49 15.04 15.03 15.89ZM15.89 18.04L15.89 18.04L15.89 17.38Q15.89 16.36 16.45 15.74Q17.01 15.12 17.94 15.12L17.94 15.12Q18.89 15.12 19.40 15.60Q19.91 16.08 19.91 16.96L19.91 16.96L18.99 16.96Q18.99 16.39 18.72 16.15Q18.45 15.91 17.94 15.91L17.94 15.91Q17.40 15.91 17.10 16.30Q16.80 16.70 16.80 17.39L16.80 17.39L16.80 18.08Q16.80 18.77 17.10 19.16Q17.40 19.56 17.94 19.56L17.94 19.56Q18.46 19.56 18.72 19.32Q18.99 19.08 18.99 18.51L18.99 18.51L19.90 18.51Q19.90 19.40 19.39 19.87Q18.88 20.35 17.94 20.35Q17.00 20.35 16.45 19.72Q15.89 19.10 15.89 18.04ZM27.64 16.07L26.21 16.07Q26.21 15.29 26.57 14.67Q26.92 14.04 27.58 13.70Q28.24 13.35 29.10 13.35L29.10 13.35Q30.34 13.35 31.06 13.98Q31.78 14.60 31.78 15.70L31.78 15.70Q31.78 16.34 31.42 17.04Q31.06 17.74 30.24 18.63L30.24 18.63L28.15 20.86L32.11 20.86L32.11 22L26.38 22L26.38 21.02L29.22 17.92Q29.83 17.24 30.09 16.78Q30.35 16.32 30.35 15.85L30.35 15.85Q30.35 15.24 30.01 14.87Q29.67 14.49 29.09 14.49L29.09 14.49Q28.40 14.49 28.02 14.92Q27.64 15.34 27.64 16.07L27.64 16.07ZM36.16 18.51L36.16 18.51L36.16 17.03Q36.16 15.19 36.85 14.27Q37.54 13.35 38.95 13.35L38.95 13.35Q40.35 13.35 41.04 14.25Q41.73 15.14 41.74 16.93L41.74 16.93L41.74 18.41Q41.74 20.25 41.06 21.18Q40.37 22.12 38.96 22.12L38.96 22.12Q37.58 22.12 36.88 21.21Q36.18 20.29 36.16 18.51ZM37.58 16.68L37.58 18.61Q37.58 19.81 37.91 20.39Q38.25 20.98 38.96 20.98L38.96 20.98Q39.65 20.98 39.98 20.44Q40.30 19.90 40.32 18.74L40.32 18.74L40.32 16.81Q40.32 15.61 39.99 15.05Q39.66 14.49 38.95 14.49L38.95 14.49Q38.25 14.49 37.92 15.02Q37.60 15.55 37.58 16.68L37.58 16.68ZM47.25 16.07L45.83 16.07Q45.83 15.29 46.18 14.67Q46.54 14.04 47.20 13.70Q47.86 13.35 48.72 13.35L48.72 13.35Q49.96 13.35 50.68 13.98Q51.39 14.60 51.39 15.70L51.39 15.70Q51.39 16.34 51.03 17.04Q50.67 17.74 49.85 18.63L49.85 18.63L47.77 20.86L51.73 20.86L51.73 22L45.99 22L45.99 21.02L48.83 17.92Q49.45 17.24 49.71 16.78Q49.97 16.32 49.97 15.85L49.97 15.85Q49.97 15.24 49.63 14.87Q49.29 14.49 48.71 14.49L48.71 14.49Q48.01 14.49 47.63 14.92Q47.25 15.34 47.25 16.07L47.25 16.07ZM57.06 16.07L55.64 16.07Q55.64 15.29 55.99 14.67Q56.35 14.04 57.01 13.70Q57.66 13.35 58.53 13.35L58.53 13.35Q59.77 13.35 60.49 13.98Q61.20 14.60 61.20 15.70L61.20 15.70Q61.20 16.34 60.84 17.04Q60.48 17.74 59.66 18.63L59.66 18.63L57.58 20.86L61.54 20.86L61.54 22L55.80 22L55.80 21.02L58.64 17.92Q59.26 17.24 59.52 16.78Q59.78 16.32 59.78 15.85L59.78 15.85Q59.78 15.24 59.44 14.87Q59.09 14.49 58.51 14.49L58.51 14.49Q57.82 14.49 57.44 14.92Q57.06 15.34 57.06 16.07L57.06 16.07Z" fill="#E5E5E5"/><path class="svg__text" d="M92.41 22L87.87 22L87.87 13.60L92.17 13.60Q93.77 13.60 94.61 14.19Q95.46 14.79 95.46 15.79L95.46 15.79Q95.46 16.39 95.16 16.87Q94.86 17.34 94.32 17.62L94.32 17.62Q95.05 17.87 95.45 18.41Q95.86 18.94 95.86 19.70L95.86 19.70Q95.86 20.80 94.97 21.40Q94.08 22 92.41 22L92.41 22ZM90.22 18.58L90.22 20.28L92.22 20.28Q93.46 20.28 93.46 19.43L93.46 19.43Q93.46 18.58 92.22 18.58L92.22 18.58L90.22 18.58ZM90.22 15.31L90.22 16.94L91.85 16.94Q93.05 16.94 93.05 16.12L93.05 16.12Q93.05 15.31 91.85 15.31L91.85 15.31L90.22 15.31ZM106.96 22L100.58 22L100.58 13.60L102.96 13.60L102.96 20.11L106.96 20.11L106.96 22ZM111.31 18.26L111.31 18.26L111.31 13.60L113.69 13.60L113.69 18.19Q113.69 20.20 115.28 20.20L115.28 20.20Q116.87 20.20 116.87 18.19L116.87 18.19L116.87 13.60L119.21 13.60L119.21 18.26Q119.21 20.13 118.17 21.15Q117.13 22.17 115.26 22.17L115.26 22.17Q113.39 22.17 112.35 21.15Q111.31 20.13 111.31 18.26ZM126.49 22L124.30 22L124.30 13.60L126.25 13.60L129.21 18.45L132.09 13.60L134.04 13.60L134.06 22L131.88 22L131.86 17.55L129.70 21.17L128.64 21.17L126.49 17.67L126.49 22ZM145.97 22L139.23 22L139.23 13.60L145.82 13.60L145.82 15.44L141.58 15.44L141.58 16.85L145.31 16.85L145.31 18.63L141.58 18.63L141.58 20.17L145.97 20.17L145.97 22ZM152.19 22L149.77 22L153.48 13.60L155.82 13.60L159.53 22L157.07 22L156.41 20.37L152.85 20.37L152.19 22ZM154.63 15.93L153.55 18.61L155.71 18.61L154.63 15.93Z" fill="#FFFFFF" x="86.68"/></svg>